<?xml version="1.0" encoding="UTF-8"?>
<svg width="779px" height="125px" viewBox="0 0 779 125" version="1.1" xmlns="http://www.w3.org/2000/svg" xmlns:xlink="http://www.w3.org/1999/xlink">
    <!-- Generator: Sketch 50.2 (55047) - http://www.bohemiancoding.com/sketch -->
    <title>TSD-logo-white-small</title>
    <desc>Created with Sketch.</desc>
    <defs></defs>
    <g id="TSD-logo-white-small" stroke="none" stroke-width="1" fill="none" fill-rule="evenodd">
        <path d="M694.895089,57.5992303 L694.895089,68.3939671 C694.895089,81.8203339 701.043,88 714.212089,88 C726.948551,88 732.951252,82.2469534 733.243676,69.8166799 L722.778506,69.8166799 C722.559188,76.1382286 720.21479,78.8339974 714.359303,78.8339974 C708.21039,78.8339974 705.873002,75.8534917 705.873002,68.1811432 L705.873002,57.813026 C705.873002,50.1397057 708.21039,47.1601718 714.359303,47.1601718 C720.21479,47.1601718 722.559188,49.8617714 722.778506,56.2484305 L733.243676,56.2484305 C732.951252,43.7530466 726.948551,38 714.212089,38 C701.043,38 694.895089,44.1738353 694.895089,57.5992303 Z M402.129722,57.5992303 L402.129722,68.3939671 C402.129722,81.8203339 408.271625,88 421.447724,88 C434.184186,88 440.185885,82.2469534 440.47931,69.8166799 L430.014141,69.8166799 C429.793822,76.1382286 427.449423,78.8339974 421.593936,78.8339974 C415.446024,78.8339974 413.107635,75.8534917 413.107635,68.1811432 L413.107635,57.813026 C413.107635,50.1397057 415.446024,47.1601718 421.593936,47.1601718 C427.449423,47.1601718 429.793822,49.8617714 430.014141,56.2484305 L440.47931,56.2484305 C440.185885,43.7530466 434.184186,38 421.447724,38 C408.271625,38 402.129722,44.1738353 402.129722,57.5992303 Z M357.09945,52.8413053 C357.09945,61.6457989 361.275504,65.627257 372.326522,67.3279042 C379.714231,68.4649084 382.352054,70.1723582 382.352054,74.1470137 C382.352054,77.6318828 379.93455,79.3315582 375.104549,79.3315582 C369.762806,79.3315582 367.057885,77.2762045 367.057885,72.58339 L356.373398,72.58339 C356.373398,83.1643311 362.148769,88 374.812125,88 C387.255161,88 393.329967,83.1001924 393.329967,73.0809508 C393.329967,63.9926921 389.307136,59.6613866 377.669267,58.0258498 C370.642081,57.0307283 368.083372,55.4010223 368.083372,51.7752425 C368.083372,48.5819129 370.421761,46.7335523 374.958337,46.7335523 C379.714231,46.7335523 381.985523,48.7947367 381.985523,52.9841597 L392.671012,52.9841597 C392.671012,42.8288663 386.88863,38 375.177655,38 C363.320468,38 357.09945,42.9707489 357.09945,52.8413053 Z M744.161501,38.8474082 L744.161501,87.146761 L779,87.146761 L779,77.9865892 L755.139414,77.9865892 L755.139414,67.1141086 L774.610638,67.1141086 L774.610638,58.0258498 L755.139414,58.0258498 L755.139414,48.0134108 L778.267939,48.0134108 L778.267939,38.8474082 L744.161501,38.8474082 Z M672.779031,38.8474082 L672.779031,69.3181474 L655.866517,38.8474082 L644.228647,38.8474082 L644.228647,87.146761 L654.62672,87.146761 L654.62672,54.6196964 L672.705926,87.146761 L683.171095,87.146761 L683.171095,38.8474082 L672.779031,38.8474082 Z M598.764747,38.8474082 L598.764747,87.146761 L633.604247,87.146761 L633.604247,77.9865892 L609.74266,77.9865892 L609.74266,67.1141086 L629.213883,67.1141086 L629.213883,58.0258498 L609.74266,58.0258498 L609.74266,48.0134108 L632.871185,48.0134108 L632.871185,38.8474082 L598.764747,38.8474082 Z M549.278015,38.8474082 L549.278015,87.146761 L567.796859,87.146761 C581.186267,87.146761 587.11486,81.25086 587.11486,68.1102019 L587.11486,57.8839673 C587.11486,44.8132787 581.186267,38.8474082 567.796859,38.8474082 L549.278015,38.8474082 Z M560.255928,47.9414977 L566.257628,47.9414977 C573.652346,47.9414977 576.136948,50.5663252 576.136948,58.0967911 L576.136948,67.8964063 C576.136948,75.4268722 573.652346,78.0516997 566.257628,78.0516997 L560.255928,78.0516997 L560.255928,47.9414977 Z M525.40441,38.8474082 L525.40441,69.3181474 L508.497904,38.8474082 L496.860035,38.8474082 L496.860035,87.146761 L507.252098,87.146761 L507.252098,54.6196964 L525.330303,87.146761 L535.795472,87.146761 L535.795472,38.8474082 L525.40441,38.8474082 Z M451.397136,38.8474082 L451.397136,87.146761 L486.235635,87.146761 L486.235635,77.9865892 L462.375049,77.9865892 L462.375049,67.1141086 L481.845271,67.1141086 L481.845271,58.0258498 L462.375049,58.0258498 L462.375049,48.0134108 L485.502572,48.0134108 L485.502572,38.8474082 L451.397136,38.8474082 Z M335.935773,38.8474082 L335.935773,69.3181474 L319.029267,38.8474082 L307.392399,38.8474082 L307.392399,87.146761 L317.784463,87.146761 L317.784463,54.6196964 L335.862667,87.146761 L346.327837,87.146761 L346.327837,38.8474082 L335.935773,38.8474082 Z M271.220969,38.8474082 L254.534782,87.146761 L265.658906,87.146761 L268.810474,77.4180871 L284.471175,77.4180871 L287.614731,87.146761 L299.252601,87.146761 L282.565412,38.8474082 L271.220969,38.8474082 Z M276.636819,50.9220035 L281.766254,68.5368214 L271.514394,68.5368214 L276.636819,50.9220035 Z M211.04975,38.8474082 L211.04975,87.146761 L222.027662,87.146761 L222.027662,69.3181474 L227.956256,69.3181474 L237.834575,87.146761 L250.351718,87.146761 L239.593124,68.3230258 C245.815142,66.5524091 248.445956,62.0014771 248.445956,54.1211638 C248.445956,43.3264271 243.616956,38.8474082 231.393238,38.8474082 L211.04975,38.8474082 Z M222.027662,47.9414977 L230.220538,47.9414977 C235.570292,47.9414977 237.468043,49.7130862 237.468043,54.1211638 C237.468043,58.4524693 235.570292,60.2298886 230.220538,60.2298886 L222.027662,60.2298886 L222.027662,47.9414977 Z M165,38.8474082 L165,48.1552934 L178.322311,48.1552934 L178.322311,87.146761 L189.300223,87.146761 L189.300223,48.1552934 L202.616526,48.1552934 L202.616526,38.8474082 L165,38.8474082 Z" id="Clip-7" fill="#FFFFFF"></path>
        <path d="M62.5,125 C27.9822031,125 0,97.0177969 0,62.5 C0,27.9822031 27.9822031,0 62.5,0 C97.0177969,0 125,27.9822031 125,62.5 C125,97.0177969 97.0177969,125 62.5,125 Z M44.6425429,49.0375715 C44.6425429,53.3083851 46.4916051,57.1586767 50.1019503,60.6760894 C52.6034279,63.1137098 55.7353918,65.2675429 60.5908146,67.9538489 C60.8455517,68.0943614 60.8455517,68.0943614 61.2899273,68.3363989 C61.7928973,68.609751 62.4505947,68.9647181 63.2732387,69.4071247 C64.0989866,69.8511726 66.200346,70.9779865 66.2762781,71.0191708 C68.3381103,72.1409753 69.6928167,72.9452534 70.7647695,73.6876096 C71.0481415,73.884523 71.3088341,74.0753409 71.5466731,74.25983 C74.8313441,76.8182505 76.6929667,80.9484053 77.1078891,86.7734441 L47.8096891,86.7734441 C47.6761885,81.9247388 49.4842454,77.7436446 53.3285982,74.0196081 L53.798535,73.5643788 L49.0619185,68.72294 L48.5966139,69.1736447 C42.4411485,75.1359702 39.9992929,82.435927 41.3988727,90.7147827 L41.7829674,92.9903037 L41.874569,93.5329861 L83.9208898,93.5329861 L83.9772908,90.2113151 C84.1428733,80.5151013 81.4023817,73.3541659 75.7263592,68.9336374 C75.3877956,68.6708408 75.0272083,68.4067514 74.642168,68.139418 C73.7305035,67.5078046 72.7094999,66.8741194 71.4238644,66.139858 L68.6827697,64.631607 C68.1959427,64.3705687 68.192063,64.3684884 67.544626,64.017974 C67.4412997,63.9601158 67.4412997,63.9601158 67.2799484,63.8701435 C66.8694393,63.6415945 66.8694393,63.6415945 66.224298,63.2831653 C65.2859158,62.7619753 63.8775932,61.9806479 61.9992798,60.939155 C61.7450274,60.8175823 61.5659927,60.7166076 61.2332424,60.5156274 L60.6622899,60.2001933 C54.1766113,56.1804093 51.4303336,52.8593763 51.4303336,49.0375715 C51.4303336,42.7434796 55.8983505,38.2271368 62.2994524,38.2271368 C68.699551,38.2271368 73.1674036,42.7436394 73.1674036,49.0375715 C73.1674036,51.4661614 72.0988643,53.5046116 69.7183092,55.6033747 L69.2275363,56.0360537 L73.7309052,61.0934203 L74.2168423,60.6650748 C78.0301692,57.3036896 79.9551943,53.4956965 79.9551943,49.0375715 C79.9551943,39.0312982 72.4747199,31.4670139 62.2994524,31.4670139 C52.1235866,31.4670139 44.6425429,39.0313233 44.6425429,49.0375715 Z" id="Oval-6" fill="#FFFFFF"></path>
    </g>
</svg>